# 3ds Max Wavefront OBJ Exporter v0.97b - (c)2007 guruware
# File Created: 16.07.2015 00:22:28

#
# object Box010
#

v  -8.5356 12.6719 -134.5731
v  -8.5356 109.6911 -134.5731
v  -8.5356 109.6911 -140.9172
v  -8.5356 12.6719 -140.9172
v  -0.0001 122.5744 -134.5731
v  -5.8680 118.3277 -134.5731
v  -4.1089 115.7992 -131.0738
v  -0.0001 119.0451 -131.0738
v  -5.3472 109.6911 -131.0738
v  -5.4136 14.9155 -130.0185
v  -5.8680 4.3071 -134.5731
v  -3.7217 6.9367 -130.0185
v  -0.0001 0.3320 -134.5731
v  -0.0001 3.5722 -131.0738
v  -5.8680 4.3071 -140.9172
v  -0.0001 0.3320 -140.9172
v  -5.8680 118.3277 -140.9172
v  -0.0001 122.5744 -140.9172
v  -0.0001 119.0451 -144.4164
v  -4.1089 115.7992 -144.4164
v  -5.3472 109.6911 -144.4164
v  -5.3472 12.6719 -144.2692
v  -4.1089 7.0423 -144.4164
v  -0.0001 3.5722 -144.4164
v  4.1088 7.0423 -144.4164
v  8.5355 12.6719 -140.9172
v  8.5355 109.6911 -140.9172
v  8.5355 109.6911 -134.5731
v  8.5355 12.6719 -134.5731
v  5.8679 118.3277 -140.9172
v  4.1088 115.7992 -144.4164
v  5.3471 109.6911 -144.4164
v  5.3471 12.6719 -144.2692
v  5.8679 4.3071 -140.9172
v  5.8679 4.3071 -134.5731
v  5.8679 118.3277 -134.5731
v  4.1088 115.7992 -131.0738
v  5.3471 109.6911 -131.0738
v  5.3471 12.6719 -131.2211
v  4.1088 7.0423 -131.0738
v  8.5354 12.6719 134.5731
v  8.5354 109.6911 134.5731
v  8.5354 109.6911 140.9172
v  8.5354 12.6719 140.9172
v  -0.0001 122.5744 134.5731
v  5.8678 118.3277 134.5731
v  3.7215 115.6961 130.8898
v  -0.0001 119.0451 131.0738
v  5.4134 107.4580 130.8898
v  5.4810 14.9155 130.8898
v  5.8678 4.3071 134.5731
v  3.7215 6.9367 130.8898
v  -0.0001 0.3320 134.5731
v  -0.0001 3.5722 131.0738
v  5.8678 4.3071 140.9172
v  -0.0001 0.3320 140.9172
v  5.8678 118.3277 140.9172
v  -0.0001 122.5744 140.9172
v  -0.0001 119.0451 144.4164
v  4.1087 115.7992 144.4164
v  5.3471 109.6911 144.4164
v  5.3471 12.6719 144.2692
v  4.1087 7.0423 144.4164
v  -0.0001 3.5722 144.4164
v  -4.1089 7.0423 144.4164
v  -8.5356 12.6719 140.9172
v  -8.5356 109.6911 140.9172
v  -8.5356 109.6911 134.5731
v  -8.5356 12.6719 134.5731
v  -5.8680 118.3277 140.9172
v  -4.1089 115.7992 144.4164
v  -5.3472 109.6911 144.4164
v  -5.3472 12.6719 144.2692
v  -5.8680 4.3071 140.9172
v  -5.8680 4.3071 134.5731
v  -5.8680 118.3277 134.5731
v  -4.1089 115.7992 131.0738
v  -5.3472 109.6911 131.0738
v  -5.3472 12.6719 131.2211
v  -4.1089 7.0423 131.0738
# 80 vertices

vn -0.9881 -0.1537 0.0000
vn -0.9888 0.1492 0.0000
vn -0.0000 0.6907 0.7232
vn -0.6062 0.4497 0.6560
vn -0.6986 0.3736 0.6103
vn 0.0000 0.7041 0.7101
vn -0.7367 0.1085 0.6675
vn -0.7495 0.1127 0.6524
vn -0.8069 -0.1200 0.5783
vn -0.8063 -0.0661 0.5878
vn -0.6308 -0.5016 0.5920
vn -0.6772 -0.4266 0.5995
vn 0.0000 -0.7338 0.6794
vn -0.0139 -0.7211 0.6927
vn -0.0000 -1.0000 0.0000
vn -0.8009 -0.5988 0.0000
vn 0.0000 -1.0000 -0.0000
vn -0.8127 0.5826 0.0000
vn -0.0000 1.0000 0.0000
vn 0.0000 1.0000 -0.0000
vn -0.0000 0.6907 -0.7232
vn -0.0000 0.7041 -0.7101
vn -0.6986 0.3736 -0.6103
vn -0.6062 0.4497 -0.6560
vn -0.7499 0.1087 -0.6526
vn -0.7349 0.1038 -0.6701
vn -0.7228 -0.0737 -0.6871
vn -0.7368 -0.0864 -0.6706
vn -0.6566 -0.3703 -0.6571
vn -0.6089 -0.4698 -0.6392
vn -0.0000 -0.6996 -0.7146
vn -0.0000 -0.7338 -0.6794
vn -0.0000 0.0000 -1.0000
vn 0.9881 -0.1537 -0.0000
vn 0.9888 0.1492 -0.0000
vn 0.6062 0.4497 -0.6560
vn 0.6986 0.3736 -0.6103
vn 0.7349 0.1038 -0.6701
vn 0.7499 0.1087 -0.6526
vn 0.7368 -0.0864 -0.6706
vn 0.7228 -0.0737 -0.6871
vn 0.6089 -0.4698 -0.6392
vn 0.6566 -0.3703 -0.6571
vn 0.8009 -0.5988 -0.0000
vn 0.8127 0.5826 -0.0000
vn 0.6986 0.3736 0.6103
vn 0.6062 0.4497 0.6560
vn 0.7499 0.1087 0.6526
vn 0.7349 0.1038 0.6701
vn 0.7228 -0.0737 0.6871
vn 0.7368 -0.0864 0.6706
vn 0.6566 -0.3703 0.6571
vn 0.6089 -0.4698 0.6392
vn -0.0000 -0.0000 -1.0000
vn -0.0000 -0.0015 -1.0000
vn -0.0000 0.0261 -0.9997
vn 0.0036 0.6856 -0.7280
vn 0.5925 0.4304 -0.6809
vn 0.6788 0.3647 -0.6374
vn 0.0254 0.7039 -0.7099
vn 0.7164 0.1296 -0.6856
vn 0.7493 0.0768 -0.6577
vn 0.7464 -0.1138 -0.6557
vn 0.7496 -0.0611 -0.6591
vn 0.6075 -0.4579 -0.6491
vn 0.6422 -0.3722 -0.6701
vn 0.0065 -0.6988 -0.7152
vn 0.0000 0.6907 0.7232
vn -0.0000 0.7041 0.7101
vn -0.0000 -0.6996 0.7146
vn 0.0000 0.0000 1.0000
vn -0.7349 0.1038 0.6701
vn -0.7499 0.1087 0.6526
vn -0.7368 -0.0864 0.6706
vn -0.7228 -0.0737 0.6871
vn -0.6089 -0.4698 0.6392
vn -0.6566 -0.3703 0.6571
vn 0.0000 -0.0015 1.0000
vn 0.0000 0.0262 0.9997
vn 0.9942 -0.1077 0.0005
vn 0.9950 0.1003 0.0006
vn 0.9949 0.1008 0.0005
vn 0.9942 -0.1074 0.0004
vn 0.0450 -0.9990 0.0005
vn 0.8577 -0.5142 0.0011
vn 0.8626 -0.5060 0.0007
vn 0.0063 -1.0000 -0.0004
vn 0.8655 0.5008 0.0008
vn 0.8520 0.5236 0.0014
vn 0.0004 1.0000 0.0008
vn 0.0221 0.9998 0.0000
vn -0.9942 -0.1076 -0.0007
vn -0.9950 0.0998 -0.0000
vn -0.9949 0.1005 0.0001
vn -0.9947 -0.1030 -0.0006
vn -0.8577 -0.5142 -0.0011
vn -0.8562 -0.5166 -0.0008
vn -0.8519 0.5236 -0.0000
# 98 vertex normals

vt 0.5625 0.8727 0.0000
vt 0.5563 0.1407 0.0000
vt 0.6021 0.1406 0.0000
vt 0.6080 0.8720 0.0000
vt 0.5550 0.0273 0.0000
vt 0.5575 0.0786 0.0000
vt 0.5253 0.0868 0.0000
vt 0.5222 0.0467 0.0000
vt 0.5216 0.1364 0.0000
vt 0.5286 0.8771 0.0000
vt 0.5652 0.9314 0.0000
vt 0.5332 0.9225 0.0000
vt 0.5632 0.9802 0.0000
vt 0.5311 0.9641 0.0000
vt 0.6069 0.9308 0.0000
vt 0.6103 0.9795 0.0000
vt 0.6007 0.0785 0.0000
vt 0.6030 0.0272 0.0000
vt 0.6359 0.0465 0.0000
vt 0.6329 0.0866 0.0000
vt 0.6368 0.1360 0.0000
vt 0.6419 0.8756 0.0000
vt 0.6387 0.9210 0.0000
vt 0.6420 0.9625 0.0000
vt 0.6832 0.9448 0.0000
vt 0.6516 0.9186 0.0000
vt 0.7143 0.9182 0.0000
vt 0.7573 0.8712 0.0000
vt 0.7530 0.1393 0.0000
vt 0.7989 0.1388 0.0000
vt 0.8029 0.8712 0.0000
vt 0.7506 0.0258 0.0000
vt 0.7536 0.0771 0.0000
vt 0.7215 0.0857 0.0000
vt 0.7179 0.0457 0.0000
vt 0.7183 0.1354 0.0000
vt 0.7234 0.8751 0.0000
vt 0.7592 0.9300 0.0000
vt 0.7273 0.9206 0.0000
vt 0.7565 0.9788 0.0000
vt 0.7246 0.9622 0.0000
vt 0.8009 0.9300 0.0000
vt 0.8036 0.9789 0.0000
vt 0.7968 0.0766 0.0000
vt 0.7986 0.0253 0.0000
vt 0.8317 0.0443 0.0000
vt 0.8291 0.0844 0.0000
vt 0.8335 0.1340 0.0000
vt 0.8368 0.8752 0.0000
vt 0.8329 0.9207 0.0000
vt 0.8355 0.9623 0.0000
vt 0.6459 0.0893 0.0000
vt 0.7085 0.0888 0.0000
vt 0.6770 0.0643 0.0000
vt 0.5625 0.8735 0.0000
vt 0.5563 0.1416 0.0000
vt 0.6021 0.1414 0.0000
vt 0.6080 0.8729 0.0000
vt 0.5550 0.0281 0.0000
vt 0.5575 0.0794 0.0000
vt 0.5253 0.0877 0.0000
vt 0.5222 0.0476 0.0000
vt 0.5216 0.1372 0.0000
vt 0.5286 0.8780 0.0000
vt 0.5652 0.9322 0.0000
vt 0.5332 0.9234 0.0000
vt 0.5632 0.9811 0.0000
vt 0.5311 0.9650 0.0000
vt 0.6069 0.9316 0.0000
vt 0.6103 0.9804 0.0000
vt 0.6007 0.0794 0.0000
vt 0.6030 0.0281 0.0000
vt 0.6359 0.0474 0.0000
vt 0.6329 0.0875 0.0000
vt 0.6368 0.1369 0.0000
vt 0.6419 0.8764 0.0000
vt 0.6387 0.9218 0.0000
vt 0.6420 0.9634 0.0000
vt 0.6832 0.9457 0.0000
vt 0.6516 0.9194 0.0000
vt 0.7143 0.9190 0.0000
vt 0.7573 0.8721 0.0000
vt 0.7530 0.1401 0.0000
vt 0.7989 0.1396 0.0000
vt 0.8029 0.8721 0.0000
vt 0.7505 0.0267 0.0000
vt 0.7536 0.0780 0.0000
vt 0.7215 0.0866 0.0000
vt 0.7179 0.0465 0.0000
vt 0.7183 0.1362 0.0000
vt 0.7234 0.8760 0.0000
vt 0.7592 0.9309 0.0000
vt 0.7273 0.9215 0.0000
vt 0.7565 0.9797 0.0000
vt 0.7246 0.9631 0.0000
vt 0.8009 0.9309 0.0000
vt 0.8036 0.9797 0.0000
vt 0.7968 0.0775 0.0000
vt 0.7986 0.0261 0.0000
vt 0.8317 0.0451 0.0000
vt 0.8291 0.0853 0.0000
vt 0.8335 0.1348 0.0000
vt 0.8368 0.8761 0.0000
vt 0.8329 0.9216 0.0000
vt 0.8355 0.9632 0.0000
vt 0.6459 0.0901 0.0000
vt 0.7085 0.0897 0.0000
vt 0.6770 0.0652 0.0000
vt 0.0878 0.0227 0.0000
vt 0.4502 0.0231 0.0000
vt 0.4423 0.9798 0.0000
vt 0.0967 0.9800 0.0000
vt 0.0462 0.0233 0.0000
vt 0.0663 0.0233 0.0000
vt 0.0662 0.9800 0.0000
vt 0.0474 0.9807 0.0000
vt 0.4737 0.9798 0.0000
vt 0.4735 0.0231 0.0000
vt 0.4930 0.0231 0.0000
vt 0.4924 0.9804 0.0000
vt 0.0880 0.0246 0.0000
vt 0.4503 0.0253 0.0000
vt 0.4497 0.9827 0.0000
vt 0.0958 0.9787 0.0000
vt 0.0463 0.0251 0.0000
vt 0.0664 0.0251 0.0000
vt 0.0653 0.9786 0.0000
vt 0.0466 0.9825 0.0000
vt 0.4730 0.9827 0.0000
vt 0.4736 0.0254 0.0000
vt 0.4931 0.0254 0.0000
vt 0.4926 0.9827 0.0000
# 132 texture coords

g Box010
s 1
f 1/1/1 2/2/2 3/3/2 
f 3/3/2 4/4/1 1/1/1 
s 2
f 5/5/3 6/6/4 7/7/5 
f 7/7/5 8/8/6 5/5/3 
f 6/6/4 2/2/7 9/9/8 
f 9/9/8 7/7/5 6/6/4 
f 2/2/7 1/1/9 10/10/10 
f 10/10/10 9/9/8 2/2/7 
f 1/1/9 11/11/11 12/12/12 
f 12/12/12 10/10/10 1/1/9 
f 11/11/11 13/13/13 14/14/14 
f 14/14/14 12/12/12 11/11/11 
s 1
f 13/13/15 11/11/16 15/15/16 
f 15/15/16 16/16/17 13/13/15 
f 17/17/18 6/6/18 5/5/19 
f 5/5/19 18/18/20 17/17/18 
f 15/15/16 11/11/16 1/1/1 
f 1/1/1 4/4/1 15/15/16 
s 2
f 18/18/21 19/19/22 20/20/23 
f 20/20/23 17/17/24 18/18/21 
f 17/17/24 20/20/23 21/21/25 
f 21/21/25 3/3/26 17/17/24 
f 3/3/26 21/21/25 22/22/27 
f 22/22/27 4/4/28 3/3/26 
f 4/4/28 22/22/27 23/23/29 
f 23/23/29 15/15/30 4/4/28 
f 15/15/30 23/23/29 24/24/31 
f 24/24/31 16/16/32 15/15/30 
s 1
f 6/6/18 17/17/18 3/3/2 
f 3/3/2 2/2/2 6/6/18 
s off
f 24/25/33 23/26/33 25/27/33 
s 1
f 26/28/34 27/29/35 28/30/35 
f 28/30/35 29/31/34 26/28/34 
s 2
f 18/32/21 30/33/36 31/34/37 
f 31/34/37 19/35/22 18/32/21 
f 30/33/36 27/29/38 32/36/39 
f 32/36/39 31/34/37 30/33/36 
f 27/29/38 26/28/40 33/37/41 
f 33/37/41 32/36/39 27/29/38 
f 26/28/40 34/38/42 25/39/43 
f 25/39/43 33/37/41 26/28/40 
f 34/38/42 16/40/32 24/41/31 
f 24/41/31 25/39/43 34/38/42 
s 1
f 16/40/17 34/38/44 35/42/44 
f 35/42/44 13/43/15 16/40/17 
f 36/44/45 30/33/45 18/32/20 
f 18/32/20 5/45/19 36/44/45 
f 35/42/44 34/38/44 26/28/34 
f 26/28/34 29/31/34 35/42/44 
s 2
f 5/45/3 8/46/6 37/47/46 
f 37/47/46 36/44/47 5/45/3 
f 36/44/47 37/47/46 38/48/48 
f 38/48/48 28/30/49 36/44/47 
f 28/30/49 38/48/48 39/49/50 
f 39/49/50 29/31/51 28/30/49 
f 29/31/51 39/49/50 40/50/52 
f 40/50/52 35/42/53 29/31/51 
f 35/42/53 40/50/52 14/51/14 
f 14/51/14 13/43/13 35/42/53 
s 1
f 30/33/45 36/44/45 28/30/35 
f 28/30/35 27/29/35 30/33/45 
s off
f 20/52/33 31/53/33 32/36/33 
f 32/36/33 21/21/33 20/52/33 
f 20/52/54 19/54/54 31/53/54 
f 21/21/55 32/36/55 33/37/55 
f 33/37/55 22/22/55 21/21/55 
f 22/22/56 33/37/56 25/27/56 
f 25/27/56 23/26/56 22/22/56 
s 1
f 41/55/34 42/56/35 43/57/35 
f 43/57/35 44/58/34 41/55/34 
s 2
f 45/59/57 46/60/58 47/61/59 
f 47/61/59 48/62/60 45/59/57 
f 46/60/58 42/56/61 49/63/62 
f 49/63/62 47/61/59 46/60/58 
f 42/56/61 41/55/63 50/64/64 
f 50/64/64 49/63/62 42/56/61 
f 41/55/63 51/65/65 52/66/66 
f 52/66/66 50/64/64 41/55/63 
f 51/65/65 53/67/32 54/68/67 
f 54/68/67 52/66/66 51/65/65 
s 1
f 53/67/17 51/65/44 55/69/44 
f 55/69/44 56/70/15 53/67/17 
f 57/71/45 46/60/45 45/59/20 
f 45/59/20 58/72/20 57/71/45 
f 55/69/44 51/65/44 41/55/34 
f 41/55/34 44/58/34 55/69/44 
s 2
f 58/72/68 59/73/69 60/74/46 
f 60/74/46 57/71/47 58/72/68 
f 57/71/47 60/74/46 61/75/48 
f 61/75/48 43/57/49 57/71/47 
f 43/57/49 61/75/48 62/76/50 
f 62/76/50 44/58/51 43/57/49 
f 44/58/51 62/76/50 63/77/52 
f 63/77/52 55/69/53 44/58/51 
f 55/69/53 63/77/52 64/78/70 
f 64/78/70 56/70/13 55/69/53 
s 1
f 46/60/45 57/71/45 43/57/35 
f 43/57/35 42/56/35 46/60/45 
s off
f 64/79/71 63/80/71 65/81/71 
s 1
f 66/82/1 67/83/2 68/84/2 
f 68/84/2 69/85/1 66/82/1 
s 2
f 58/86/68 70/87/4 71/88/5 
f 71/88/5 59/89/69 58/86/68 
f 70/87/4 67/83/72 72/90/73 
f 72/90/73 71/88/5 70/87/4 
f 67/83/72 66/82/74 73/91/75 
f 73/91/75 72/90/73 67/83/72 
f 66/82/74 74/92/76 65/93/77 
f 65/93/77 73/91/75 66/82/74 
f 74/92/76 56/94/13 64/95/70 
f 64/95/70 65/93/77 74/92/76 
s 1
f 56/94/15 74/92/16 75/96/16 
f 75/96/16 53/97/17 56/94/15 
f 76/98/18 70/87/18 58/86/20 
f 58/86/20 45/99/20 76/98/18 
f 75/96/16 74/92/16 66/82/1 
f 66/82/1 69/85/1 75/96/16 
s 2
f 45/99/57 48/100/60 77/101/23 
f 77/101/23 76/98/24 45/99/57 
f 76/98/24 77/101/23 78/102/25 
f 78/102/25 68/84/26 76/98/24 
f 68/84/26 78/102/25 79/103/27 
f 79/103/27 69/85/28 68/84/26 
f 69/85/28 79/103/27 80/104/29 
f 80/104/29 75/96/30 69/85/28 
f 75/96/30 80/104/29 54/105/67 
f 54/105/67 53/97/32 75/96/30 
s 1
f 70/87/18 76/98/18 68/84/2 
f 68/84/2 67/83/2 70/87/18 
s off
f 60/106/71 71/107/71 72/90/71 
f 72/90/71 61/75/71 60/106/71 
f 60/106/71 59/108/71 71/107/71 
f 61/75/78 72/90/78 73/91/78 
f 73/91/78 62/76/78 61/75/78 
f 62/76/79 73/91/79 65/81/79 
f 65/81/79 63/80/79 62/76/79 
s 1
f 39/109/80 38/110/81 49/111/82 
f 49/111/82 50/112/83 39/109/80 
f 14/113/84 40/114/85 52/115/86 
f 52/115/86 54/116/87 14/113/84 
f 47/117/88 37/118/89 8/119/90 
f 8/119/90 48/120/91 47/117/88 
f 52/115/86 40/114/85 39/109/80 
f 39/109/80 50/112/83 52/115/86 
f 37/118/89 47/117/88 49/111/82 
f 49/111/82 38/110/81 37/118/89 
f 79/121/92 78/122/93 9/123/94 
f 9/123/94 10/124/95 79/121/92 
f 54/125/87 80/126/96 12/127/97 
f 12/127/97 14/128/84 54/125/87 
f 7/129/98 77/130/98 48/131/91 
f 48/131/91 8/132/90 7/129/98 
f 12/127/97 80/126/96 79/121/92 
f 79/121/92 10/124/95 12/127/97 
f 77/130/98 7/129/98 9/123/94 
f 9/123/94 78/122/93 77/130/98 
# 156 faces

