# 3ds Max Wavefront OBJ Exporter v0.97b - (c)2007 guruware
# File Created: 16.07.2015 00:24:08

#
# object Box009
#

v  -6.6713 3.5722 -60.0768
v  -6.5241 12.6719 -65.4240
v  -6.6713 7.0423 -64.1856
v  -3.1721 12.6719 -68.6123
v  -3.1721 109.6911 -68.6123
v  3.1721 109.6911 -68.6123
v  3.1721 12.6719 -68.6123
v  -3.1721 122.5744 -60.0768
v  -3.1721 118.3277 -65.9447
v  -6.6713 115.7992 -64.1856
v  -6.6713 119.0451 -60.0768
v  -6.6713 109.6911 -65.4240
v  -3.1721 4.3071 -65.9447
v  -3.1721 0.3320 -60.0768
v  3.1721 4.3071 -65.9447
v  3.1721 0.3320 -60.0768
v  3.1721 118.3277 -65.9447
v  3.1721 122.5744 -60.0768
v  6.5241 12.6719 -65.4240
v  6.6713 109.6911 -65.4240
v  6.6713 119.0451 -60.0768
v  6.6713 3.5722 -60.0768
v  6.6713 115.7992 -64.1856
v  6.6713 7.0423 -64.1856
v  6.6713 3.5722 60.0769
v  6.5241 12.6719 65.4240
v  6.6713 7.0423 64.1857
v  3.1721 12.6719 68.6124
v  3.1721 109.6911 68.6124
v  -3.1721 109.6911 68.6124
v  -3.1721 12.6719 68.6124
v  3.1721 122.5744 60.0769
v  3.1721 118.3277 65.9448
v  6.6713 115.7992 64.1857
v  6.6713 119.0451 60.0769
v  6.6713 109.6911 65.4240
v  3.1721 4.3071 65.9448
v  3.1721 0.3320 60.0769
v  -3.1721 4.3071 65.9448
v  -3.1721 0.3320 60.0769
v  -3.1721 118.3277 65.9448
v  -3.1721 122.5744 60.0769
v  -6.5241 12.6719 65.4240
v  -6.6713 109.6911 65.4240
v  -6.6713 119.0451 60.0769
v  -6.6713 3.5722 60.0769
v  -6.6713 115.7992 64.1857
v  -6.6713 7.0423 64.1857
# 48 vertices

vn -0.9999 0.0125 -0.0063
vn -0.9998 0.0034 -0.0211
vn -0.9991 0.0321 0.0271
vn 0.0000 -0.1537 -0.9881
vn 0.0000 0.1492 -0.9888
vn -0.6408 0.6120 -0.4634
vn -0.6560 0.4497 -0.6062
vn -0.6103 0.3736 -0.6986
vn -0.6206 0.6153 -0.4861
vn -0.6701 0.1038 -0.7349
vn -0.6526 0.1087 -0.7499
vn -0.6706 -0.0864 -0.7368
vn -0.6871 -0.0737 -0.7228
vn -0.6392 -0.4698 -0.6089
vn -0.6571 -0.3703 -0.6566
vn -0.6084 -0.6571 -0.4451
vn -0.6356 -0.6222 -0.4570
vn 0.0000 -0.8279 -0.5608
vn 0.0000 -0.5988 -0.8009
vn 0.0000 0.5826 -0.8127
vn 0.0000 0.8101 -0.5863
vn 0.9998 0.0034 -0.0211
vn 1.0000 -0.0014 0.0024
vn 1.0000 -0.0008 -0.0002
vn 0.9999 0.0125 -0.0063
vn 0.6408 0.6120 -0.4634
vn 0.6206 0.6153 -0.4861
vn 0.6103 0.3736 -0.6986
vn 0.6560 0.4497 -0.6062
vn 0.6526 0.1087 -0.7499
vn 0.6701 0.1038 -0.7349
vn 0.6871 -0.0737 -0.7228
vn 0.6706 -0.0864 -0.7368
vn 0.6571 -0.3703 -0.6566
vn 0.6392 -0.4698 -0.6089
vn 0.6356 -0.6222 -0.4570
vn 0.6084 -0.6571 -0.4451
vn 0.0000 0.0000 1.0000
vn -1.0000 -0.0008 -0.0002
vn -1.0000 -0.0014 0.0024
vn -1.0000 0.0000 -0.0000
vn 1.0000 0.0000 -0.0000
vn 0.9991 0.0321 0.0271
vn 0.9999 0.0125 0.0063
vn 0.9998 0.0034 0.0211
vn 0.9991 0.0321 -0.0271
vn 0.0000 -0.1537 0.9881
vn 0.0000 0.1492 0.9888
vn 0.6408 0.6120 0.4634
vn 0.6560 0.4497 0.6062
vn 0.6103 0.3736 0.6986
vn 0.6206 0.6153 0.4861
vn 0.6701 0.1038 0.7349
vn 0.6526 0.1087 0.7499
vn 0.6706 -0.0864 0.7368
vn 0.6871 -0.0737 0.7228
vn 0.6392 -0.4698 0.6089
vn 0.6571 -0.3703 0.6566
vn 0.6084 -0.6571 0.4451
vn 0.6356 -0.6222 0.4570
vn 0.0000 -0.8279 0.5608
vn 0.0000 -0.5988 0.8009
vn 0.0000 0.5826 0.8127
vn 0.0000 0.8101 0.5863
vn -0.9998 0.0034 0.0211
vn -1.0000 -0.0014 -0.0024
vn -1.0000 -0.0008 0.0002
vn -0.9999 0.0125 0.0063
vn -0.6408 0.6120 0.4634
vn -0.6206 0.6153 0.4861
vn -0.6103 0.3736 0.6986
vn -0.6560 0.4497 0.6062
vn -0.6526 0.1087 0.7499
vn -0.6701 0.1038 0.7349
vn -0.6871 -0.0737 0.7228
vn -0.6706 -0.0864 0.7368
vn -0.6571 -0.3703 0.6566
vn -0.6392 -0.4698 0.6089
vn -0.6356 -0.6222 0.4570
vn -0.6084 -0.6571 0.4451
vn 0.0000 0.0000 -1.0000
vn 1.0000 -0.0008 0.0002
vn 1.0000 -0.0014 -0.0024
vn 1.0000 -0.0000 0.0000
vn -0.9991 0.0321 -0.0271
# 85 vertex normals

vt 0.1080 0.9375 0.0000
vt 0.1404 0.8701 0.0000
vt 0.1331 0.9107 0.0000
vt 0.1800 0.8679 0.0000
vt 0.1755 0.1300 0.0000
vt 0.2289 0.1298 0.0000
vt 0.2331 0.8677 0.0000
vt 0.1727 0.0155 0.0000
vt 0.1762 0.0673 0.0000
vt 0.1388 0.0757 0.0000
vt 0.1346 0.0352 0.0000
vt 0.1350 0.1278 0.0000
vt 0.1830 0.9272 0.0000
vt 0.1456 0.9180 0.0000
vt 0.1805 0.9765 0.0000
vt 0.1430 0.9600 0.0000
vt 0.2316 0.9270 0.0000
vt 0.2355 0.9763 0.0000
vt 0.2266 0.0671 0.0000
vt 0.2287 0.0153 0.0000
vt 0.2727 0.8695 0.0000
vt 0.2694 0.1272 0.0000
vt 0.3020 0.0578 0.0000
vt 0.3059 0.9364 0.0000
vt 0.2673 0.0347 0.0000
vt 0.2642 0.0752 0.0000
vt 0.2688 0.9175 0.0000
vt 0.2724 0.9594 0.0000
vt 0.0258 0.9385 0.0000
vt 0.0866 0.9624 0.0000
vt 0.0476 0.9629 0.0000
vt 0.0407 0.0326 0.0000
vt 0.0798 0.0321 0.0000
vt 0.1016 0.0589 0.0000
vt 0.0194 0.0598 0.0000
vt 0.1270 0.0835 0.0000
vt 0.2768 0.0827 0.0000
vt 0.2805 0.9103 0.0000
# 38 texture coords

g Box009
s 1
f 1/1/1 2/2/2 3/3/3 
f 4/4/4 5/5/5 6/6/5 
f 6/6/5 7/7/4 4/4/4 
s 2
f 8/8/6 9/9/7 10/10/8 
f 10/10/8 11/11/9 8/8/6 
f 9/9/7 5/5/10 12/12/11 
f 12/12/11 10/10/8 9/9/7 
f 5/5/10 4/4/12 2/2/13 
f 2/2/13 12/12/11 5/5/10 
f 4/4/12 13/13/14 3/14/15 
f 3/14/15 2/2/13 4/4/12 
f 13/13/14 14/15/16 1/16/17 
f 1/16/17 3/14/15 13/13/14 
s 1
f 14/15/18 13/13/19 15/17/19 
f 15/17/19 16/18/18 14/15/18 
f 17/19/20 9/9/20 8/8/21 
f 8/8/21 18/20/21 17/19/20 
f 19/21/22 20/22/23 21/23/24 
f 21/23/24 22/24/25 19/21/22 
f 15/17/19 13/13/19 4/4/4 
f 4/4/4 7/7/4 15/17/19 
s 2
f 18/20/26 21/25/27 23/26/28 
f 23/26/28 17/19/29 18/20/26 
f 17/19/29 23/26/28 20/22/30 
f 20/22/30 6/6/31 17/19/29 
f 6/6/31 20/22/30 19/21/32 
f 19/21/32 7/7/33 6/6/31 
f 7/7/33 19/21/32 24/27/34 
f 24/27/34 15/17/35 7/7/33 
f 15/17/35 24/27/34 22/28/36 
f 22/28/36 16/18/37 15/17/35 
s 1
f 9/9/20 17/19/20 6/6/5 
f 6/6/5 5/5/5 9/9/20 
s off
f 22/29/38 1/1/38 14/30/38 
f 14/30/38 16/31/38 22/29/38 
f 18/32/38 8/33/38 11/34/38 
f 11/34/38 21/35/38 18/32/38 
f 22/29/38 21/35/38 11/34/38 
f 11/34/38 1/1/38 22/29/38 
s 1
f 11/34/39 12/12/40 2/2/2 
f 2/2/2 1/1/1 11/34/39 
f 11/34/39 10/36/41 12/12/40 
f 20/22/23 23/37/42 21/23/24 
f 22/24/25 24/38/43 19/21/22 
f 25/1/44 26/2/45 27/3/46 
f 28/4/47 29/5/48 30/6/48 
f 30/6/48 31/7/47 28/4/47 
s 2
f 32/8/49 33/9/50 34/10/51 
f 34/10/51 35/11/52 32/8/49 
f 33/9/50 29/5/53 36/12/54 
f 36/12/54 34/10/51 33/9/50 
f 29/5/53 28/4/55 26/2/56 
f 26/2/56 36/12/54 29/5/53 
f 28/4/55 37/13/57 27/14/58 
f 27/14/58 26/2/56 28/4/55 
f 37/13/57 38/15/59 25/16/60 
f 25/16/60 27/14/58 37/13/57 
s 1
f 38/15/61 37/13/62 39/17/62 
f 39/17/62 40/18/61 38/15/61 
f 41/19/63 33/9/63 32/8/64 
f 32/8/64 42/20/64 41/19/63 
f 43/21/65 44/22/66 45/23/67 
f 45/23/67 46/24/68 43/21/65 
f 39/17/62 37/13/62 28/4/47 
f 28/4/47 31/7/47 39/17/62 
s 2
f 42/20/69 45/25/70 47/26/71 
f 47/26/71 41/19/72 42/20/69 
f 41/19/72 47/26/71 44/22/73 
f 44/22/73 30/6/74 41/19/72 
f 30/6/74 44/22/73 43/21/75 
f 43/21/75 31/7/76 30/6/74 
f 31/7/76 43/21/75 48/27/77 
f 48/27/77 39/17/78 31/7/76 
f 39/17/78 48/27/77 46/28/79 
f 46/28/79 40/18/80 39/17/78 
s 1
f 33/9/63 41/19/63 30/6/48 
f 30/6/48 29/5/48 33/9/63 
s off
f 46/29/81 25/1/81 38/30/81 
f 38/30/81 40/31/81 46/29/81 
f 42/32/81 32/33/81 35/34/81 
f 35/34/81 45/35/81 42/32/81 
f 46/29/81 45/35/81 35/34/81 
f 35/34/81 25/1/81 46/29/81 
s 1
f 35/34/82 36/12/83 26/2/45 
f 26/2/45 25/1/44 35/34/82 
f 35/34/82 34/36/84 36/12/83 
f 44/22/66 47/37/41 45/23/67 
f 46/24/68 48/38/85 43/21/65 
# 88 faces

#
# object Object001
#

v  3.1721 0.3320 60.0769
v  -3.1721 0.3320 60.0769
v  -3.1721 0.3320 0.0000
v  3.1721 0.3320 0.0000
v  6.6713 3.5722 60.0769
v  6.6713 3.5722 0.0000
v  6.6713 119.0451 0.0000
v  6.6713 119.0451 60.0769
v  3.1721 122.5744 0.0000
v  3.1721 122.5744 60.0769
v  -3.1721 122.5744 0.0000
v  -3.1721 122.5744 60.0769
v  -6.6713 3.5722 60.0769
v  -6.6713 119.0451 60.0769
v  -6.6713 119.0451 0.0000
v  -6.6713 3.5722 0.0000
# 16 vertices

vn 0.0000 -1.0000 -0.0000
vn 1.0000 0.0000 0.0000
vn 0.6794 -0.7338 0.0000
vn 0.7101 0.7041 0.0000
vn 0.0000 1.0000 -0.0000
vn -1.0000 0.0000 -0.0000
vn -0.6794 -0.7338 -0.0000
vn 0.0000 0.0000 -1.0000
vn -0.7101 0.7041 -0.0000
vn 0.0000 0.0000 1.0000
# 10 vertex normals

vt 0.6497 0.2943 0.0000
vt 0.6497 0.2643 0.0000
vt 0.9215 0.2638 0.0000
vt 0.9216 0.2938 0.0000
vt 0.6498 0.3168 0.0000
vt 0.9216 0.3163 0.0000
vt 0.9226 0.8613 0.0000
vt 0.6507 0.8618 0.0000
vt 0.9226 0.8847 0.0000
vt 0.6508 0.8852 0.0000
vt 0.9227 0.9147 0.0000
vt 0.6508 0.9152 0.0000
vt 0.5894 0.3169 0.0000
vt 0.5903 0.8619 0.0000
vt 0.3185 0.8624 0.0000
vt 0.3175 0.3174 0.0000
vt 0.6496 0.2418 0.0000
vt 0.9215 0.2413 0.0000
vt 0.9820 0.3161 0.0000
vt 0.9374 0.3009 0.0000
vt 0.9661 0.3009 0.0000
vt 0.9227 0.9381 0.0000
vt 0.6509 0.9386 0.0000
vt 0.6052 0.3016 0.0000
vt 0.6339 0.3015 0.0000
vt 0.6349 0.8785 0.0000
vt 0.6062 0.8785 0.0000
vt 0.9672 0.8778 0.0000
vt 0.9385 0.8779 0.0000
vt 0.9830 0.8611 0.0000
# 30 texture coords

g Object001
s 1
f 49/39/86 50/40/86 51/41/86 
f 51/41/86 52/42/86 49/39/86 
s 64
f 53/43/87 54/44/87 55/45/87 
f 55/45/87 56/46/87 53/43/87 
s 2
f 49/39/88 52/42/88 54/44/88 
f 54/44/88 53/43/88 49/39/88 
f 57/47/89 58/48/89 56/46/89 
f 56/46/89 55/45/89 57/47/89 
s 1
f 59/49/90 60/50/90 58/48/90 
f 58/48/90 57/47/90 59/49/90 
s 64
f 61/51/91 62/52/91 63/53/91 
f 63/53/91 64/54/91 61/51/91 
s 2
f 50/40/92 61/55/92 64/56/92 
f 64/56/92 51/41/92 50/40/92 
s 8
f 64/57/93 54/44/93 52/58/93 
f 52/58/93 51/59/93 64/57/93 
s 2
f 59/49/94 63/60/94 62/61/94 
f 62/61/94 60/50/94 59/49/94 
s off
f 53/43/95 61/51/95 50/62/95 
f 50/62/95 49/63/95 53/43/95 
f 56/46/95 62/52/95 61/51/95 
f 61/51/95 53/43/95 56/46/95 
f 56/46/95 58/64/95 60/65/95 
f 60/65/95 62/52/95 56/46/95 
s 8
f 59/66/93 57/67/93 55/45/93 
f 55/45/93 63/68/93 59/66/93 
f 64/57/93 63/68/93 55/45/93 
f 55/45/93 54/44/93 64/57/93 
# 28 faces

#
# object Object002
#

v  -3.1721 0.3320 -60.0768
v  3.1721 0.3320 -60.0768
v  3.1721 0.3320 0.0000
v  -3.1721 0.3320 0.0000
v  -6.6713 3.5722 -60.0768
v  -6.6713 3.5722 0.0000
v  -6.6713 119.0451 0.0000
v  -6.6713 119.0451 -60.0768
v  -3.1721 122.5744 0.0000
v  -3.1721 122.5744 -60.0768
v  3.1721 122.5744 0.0000
v  3.1721 122.5744 -60.0768
v  6.6713 3.5722 -60.0768
v  6.6713 119.0451 -60.0768
v  6.6713 119.0451 0.0000
v  6.6713 3.5722 0.0000
# 16 vertices

vn 0.0000 -1.0000 -0.0000
vn -1.0000 0.0000 -0.0000
vn -0.6794 -0.7338 -0.0000
vn -0.7101 0.7041 -0.0000
vn 0.0000 1.0000 -0.0000
vn 1.0000 0.0000 -0.0000
vn 0.6794 -0.7338 -0.0000
vn 0.0000 0.0000 1.0000
vn 0.7101 0.7041 -0.0000
vn 0.0000 0.0000 -1.0000
# 10 vertex normals

vt 0.6497 0.2943 0.0000
vt 0.6497 0.2643 0.0000
vt 0.9215 0.2638 0.0000
vt 0.9216 0.2938 0.0000
vt 0.6498 0.3168 0.0000
vt 0.9216 0.3163 0.0000
vt 0.9226 0.8613 0.0000
vt 0.6507 0.8618 0.0000
vt 0.9226 0.8847 0.0000
vt 0.6508 0.8852 0.0000
vt 0.9227 0.9147 0.0000
vt 0.6508 0.9152 0.0000
vt 0.5894 0.3169 0.0000
vt 0.5903 0.8619 0.0000
vt 0.3185 0.8624 0.0000
vt 0.3175 0.3174 0.0000
vt 0.6496 0.2418 0.0000
vt 0.9215 0.2413 0.0000
vt 0.9820 0.3161 0.0000
vt 0.9374 0.3009 0.0000
vt 0.9661 0.3009 0.0000
vt 0.9227 0.9381 0.0000
vt 0.6509 0.9386 0.0000
vt 0.6052 0.3016 0.0000
vt 0.6339 0.3015 0.0000
vt 0.6349 0.8785 0.0000
vt 0.6062 0.8785 0.0000
vt 0.9672 0.8778 0.0000
vt 0.9385 0.8779 0.0000
vt 0.9830 0.8611 0.0000
# 30 texture coords

g Object002
s 1
f 65/69/96 66/70/96 67/71/96 
f 67/71/96 68/72/96 65/69/96 
s 64
f 69/73/97 70/74/97 71/75/97 
f 71/75/97 72/76/97 69/73/97 
s 2
f 65/69/98 68/72/98 70/74/98 
f 70/74/98 69/73/98 65/69/98 
f 73/77/99 74/78/99 72/76/99 
f 72/76/99 71/75/99 73/77/99 
s 1
f 75/79/100 76/80/100 74/78/100 
f 74/78/100 73/77/100 75/79/100 
s 64
f 77/81/101 78/82/101 79/83/101 
f 79/83/101 80/84/101 77/81/101 
s 2
f 66/70/102 77/85/102 80/86/102 
f 80/86/102 67/71/102 66/70/102 
s 8
f 80/87/103 70/74/103 68/88/103 
f 68/88/103 67/89/103 80/87/103 
s 2
f 75/79/104 79/90/104 78/91/104 
f 78/91/104 76/80/104 75/79/104 
s off
f 69/73/105 77/81/105 66/92/105 
f 66/92/105 65/93/105 69/73/105 
f 72/76/105 78/82/105 77/81/105 
f 77/81/105 69/73/105 72/76/105 
f 72/76/105 74/94/105 76/95/105 
f 76/95/105 78/82/105 72/76/105 
s 8
f 75/96/103 73/97/103 71/75/103 
f 71/75/103 79/98/103 75/96/103 
f 80/87/103 79/98/103 71/75/103 
f 71/75/103 70/74/103 80/87/103 
# 28 faces

