# 3ds Max Wavefront OBJ Exporter v0.97b - (c)2007 guruware
# File Created: 16.07.2015 00:21:47

#
# object Box006
#

v  -6.6713 3.5722 -60.0768
v  -6.5241 12.6719 -65.4240
v  -6.6713 7.0423 -64.1856
v  -3.1721 12.6719 -68.6123
v  -3.1721 109.6911 -68.6123
v  3.1721 109.6911 -68.6123
v  3.1721 12.6719 -68.6123
v  -3.1721 122.5744 -60.0768
v  -3.1721 118.3277 -65.9447
v  -6.6713 115.7992 -64.1856
v  -6.6713 119.0451 -60.0768
v  -6.6713 109.6911 -65.4240
v  -3.1721 4.3071 -65.9447
v  -3.1721 0.3320 -60.0768
v  3.1721 4.3071 -65.9447
v  3.1721 0.3320 -60.0768
v  3.1721 118.3277 -65.9447
v  3.1721 122.5744 -60.0768
v  6.5241 12.6719 -65.4240
v  6.6713 109.6911 -65.4240
v  6.6713 119.0451 -60.0768
v  6.6713 3.5722 -60.0768
v  6.6713 115.7992 -64.1856
v  6.6713 7.0423 -64.1856
v  6.6713 3.5722 60.0769
v  6.5241 12.6719 65.4240
v  6.6713 7.0423 64.1857
v  3.1721 12.6719 68.6124
v  3.1721 109.6911 68.6124
v  -3.1721 109.6911 68.6124
v  -3.1721 12.6719 68.6124
v  3.1721 122.5744 60.0769
v  3.1721 118.3277 65.9448
v  6.6713 115.7992 64.1857
v  6.6713 119.0451 60.0769
v  6.6713 109.6911 65.4240
v  3.1721 4.3071 65.9448
v  3.1721 0.3320 60.0769
v  -3.1721 4.3071 65.9448
v  -3.1721 0.3320 60.0769
v  -3.1721 118.3277 65.9448
v  -3.1721 122.5744 60.0769
v  -6.5241 12.6719 65.4240
v  -6.6713 109.6911 65.4240
v  -6.6713 119.0451 60.0769
v  -6.6713 3.5722 60.0769
v  -6.6713 115.7992 64.1857
v  -6.6713 7.0423 64.1857
# 48 vertices

vn -0.9991 0.0321 0.0271
vn 0.0000 -0.1537 -0.9881
vn 0.0000 0.1492 -0.9888
vn -0.7007 0.6846 -0.2007
vn -0.6560 0.4497 -0.6062
vn -0.6103 0.3736 -0.6986
vn -0.6811 0.6754 -0.2827
vn -0.6701 0.1038 -0.7349
vn -0.6526 0.1087 -0.7499
vn -0.6706 -0.0864 -0.7368
vn -0.6871 -0.0737 -0.7228
vn -0.6392 -0.4698 -0.6089
vn -0.6571 -0.3703 -0.6566
vn -0.6662 -0.7195 -0.1960
vn -0.6735 -0.6901 -0.2648
vn 0.0000 -0.9560 -0.2933
vn 0.0000 -0.5988 -0.8009
vn 0.0000 0.5826 -0.8127
vn 0.0000 0.9513 -0.3081
vn 1.0000 -0.0015 0.0027
vn 0.9996 0.0000 -0.0275
vn 0.7007 0.6846 -0.2007
vn 0.6811 0.6754 -0.2827
vn 0.6103 0.3736 -0.6986
vn 0.6560 0.4497 -0.6062
vn 0.6526 0.1087 -0.7499
vn 0.6701 0.1038 -0.7349
vn 0.6871 -0.0737 -0.7228
vn 0.6706 -0.0864 -0.7368
vn 0.6571 -0.3703 -0.6566
vn 0.6392 -0.4698 -0.6089
vn 0.6735 -0.6901 -0.2648
vn 0.6662 -0.7195 -0.1960
vn -1.0000 -0.0015 0.0027
vn -0.9996 0.0000 -0.0275
vn -1.0000 0.0000 -0.0000
vn 1.0000 0.0000 -0.0000
vn 0.9991 0.0321 0.0271
vn 0.9991 0.0321 -0.0271
vn 0.0000 -0.1537 0.9881
vn 0.0000 0.1492 0.9888
vn 0.7007 0.6846 0.2007
vn 0.6560 0.4497 0.6062
vn 0.6103 0.3736 0.6986
vn 0.6811 0.6754 0.2827
vn 0.6701 0.1038 0.7349
vn 0.6526 0.1087 0.7499
vn 0.6706 -0.0864 0.7368
vn 0.6871 -0.0737 0.7228
vn 0.6392 -0.4698 0.6089
vn 0.6571 -0.3703 0.6566
vn 0.6662 -0.7195 0.1960
vn 0.6735 -0.6901 0.2648
vn 0.0000 -0.9560 0.2933
vn 0.0000 -0.5988 0.8009
vn 0.0000 0.5826 0.8127
vn 0.0000 0.9513 0.3081
vn -1.0000 -0.0015 -0.0027
vn -0.9996 0.0000 0.0275
vn -0.7007 0.6846 0.2007
vn -0.6811 0.6754 0.2827
vn -0.6103 0.3736 0.6986
vn -0.6560 0.4497 0.6062
vn -0.6526 0.1087 0.7499
vn -0.6701 0.1038 0.7349
vn -0.6871 -0.0737 0.7228
vn -0.6706 -0.0864 0.7368
vn -0.6571 -0.3703 0.6566
vn -0.6392 -0.4698 0.6089
vn -0.6735 -0.6901 0.2648
vn -0.6662 -0.7195 0.1960
vn 1.0000 0.0000 0.0000
vn 1.0000 -0.0015 -0.0027
vn 0.9996 0.0000 0.0275
vn 1.0000 -0.0000 0.0000
vn -0.9991 0.0321 -0.0271
# 76 vertex normals

vt 0.0144 0.9375 0.0000
vt 0.0468 0.8701 0.0000
vt 0.0395 0.9107 0.0000
vt 0.0864 0.8679 0.0000
vt 0.0819 0.1300 0.0000
vt 0.1353 0.1298 0.0000
vt 0.1395 0.8677 0.0000
vt 0.0791 0.0155 0.0000
vt 0.0826 0.0673 0.0000
vt 0.0451 0.0757 0.0000
vt 0.0410 0.0352 0.0000
vt 0.0414 0.1278 0.0000
vt 0.0894 0.9272 0.0000
vt 0.0520 0.9180 0.0000
vt 0.0869 0.9765 0.0000
vt 0.0494 0.9600 0.0000
vt 0.1380 0.9270 0.0000
vt 0.1418 0.9763 0.0000
vt 0.1330 0.0671 0.0000
vt 0.1351 0.0153 0.0000
vt 0.1790 0.8695 0.0000
vt 0.1757 0.1272 0.0000
vt 0.2084 0.0578 0.0000
vt 0.2123 0.9364 0.0000
vt 0.1737 0.0347 0.0000
vt 0.1706 0.0752 0.0000
vt 0.1751 0.9175 0.0000
vt 0.1788 0.9594 0.0000
vt 0.0079 0.0589 0.0000
vt 0.0334 0.0835 0.0000
vt 0.1832 0.0827 0.0000
vt 0.1869 0.9103 0.0000
vt 0.2214 0.0917 0.0000
vt 0.2213 0.0505 0.0000
vt 0.9804 0.0490 0.0000
vt 0.9805 0.0902 0.0000
vt 0.2215 0.1227 0.0000
vt 0.9805 0.1212 0.0000
vt 0.9819 0.8715 0.0000
vt 0.2228 0.8730 0.0000
vt 0.9834 0.9773 0.0000
vt 0.2244 0.9787 0.0000
vt 0.2243 0.9464 0.0000
vt 0.9834 0.9450 0.0000
vt 0.2242 0.9052 0.0000
vt 0.9833 0.9038 0.0000
vt 0.9819 0.1212 0.0000
vt 0.9832 0.8715 0.0000
vt 0.2242 0.8729 0.0000
vt 0.2228 0.1226 0.0000
vt 0.2213 0.0195 0.0000
vt 0.9804 0.0180 0.0000
# 52 texture coords

g Box006
s off
f 1/1/1 2/2/1 3/3/1 
s 1
f 4/4/2 5/5/3 6/6/3 
f 6/6/3 7/7/2 4/4/2 
s 2
f 8/8/4 9/9/5 10/10/6 
f 10/10/6 11/11/7 8/8/4 
f 9/9/5 5/5/8 12/12/9 
f 12/12/9 10/10/6 9/9/5 
f 5/5/8 4/4/10 2/2/11 
f 2/2/11 12/12/9 5/5/8 
f 4/4/10 13/13/12 3/14/13 
f 3/14/13 2/2/11 4/4/10 
f 13/13/12 14/15/14 1/16/15 
f 1/16/15 3/14/13 13/13/12 
s 1
f 14/15/16 13/13/17 15/17/17 
f 15/17/17 16/18/16 14/15/16 
f 17/19/18 9/9/18 8/8/19 
f 8/8/19 18/20/19 17/19/18 
s off
f 19/21/20 20/22/20 21/23/20 
f 21/23/21 22/24/21 19/21/21 
s 1
f 15/17/17 13/13/17 4/4/2 
f 4/4/2 7/7/2 15/17/17 
s 2
f 18/20/22 21/25/23 23/26/24 
f 23/26/24 17/19/25 18/20/22 
f 17/19/25 23/26/24 20/22/26 
f 20/22/26 6/6/27 17/19/25 
f 6/6/27 20/22/26 19/21/28 
f 19/21/28 7/7/29 6/6/27 
f 7/7/29 19/21/28 24/27/30 
f 24/27/30 15/17/31 7/7/29 
f 15/17/31 24/27/30 22/28/32 
f 22/28/32 16/18/33 15/17/31 
s 1
f 9/9/18 17/19/18 6/6/3 
f 6/6/3 5/5/3 9/9/18 
s off
f 11/29/34 12/12/34 2/2/34 
f 2/2/35 1/1/35 11/29/35 
f 11/29/36 10/30/36 12/12/36 
f 20/22/37 23/31/37 21/23/37 
f 22/24/38 24/32/38 19/21/38 
f 25/1/39 26/2/39 27/3/39 
s 1
f 28/4/40 29/5/41 30/6/41 
f 30/6/41 31/7/40 28/4/40 
s 2
f 32/8/42 33/9/43 34/10/44 
f 34/10/44 35/11/45 32/8/42 
f 33/9/43 29/5/46 36/12/47 
f 36/12/47 34/10/44 33/9/43 
f 29/5/46 28/4/48 26/2/49 
f 26/2/49 36/12/47 29/5/46 
f 28/4/48 37/13/50 27/14/51 
f 27/14/51 26/2/49 28/4/48 
f 37/13/50 38/15/52 25/16/53 
f 25/16/53 27/14/51 37/13/50 
s 1
f 38/15/54 37/13/55 39/17/55 
f 39/17/55 40/18/54 38/15/54 
f 41/19/56 33/9/56 32/8/57 
f 32/8/57 42/20/57 41/19/56 
s off
f 43/21/58 44/22/58 45/23/58 
f 45/23/59 46/24/59 43/21/59 
s 1
f 39/17/55 37/13/55 28/4/40 
f 28/4/40 31/7/40 39/17/55 
s 2
f 42/20/60 45/25/61 47/26/62 
f 47/26/62 41/19/63 42/20/60 
f 41/19/63 47/26/62 44/22/64 
f 44/22/64 30/6/65 41/19/63 
f 30/6/65 44/22/64 43/21/66 
f 43/21/66 31/7/67 30/6/65 
f 31/7/67 43/21/66 48/27/68 
f 48/27/68 39/17/69 31/7/67 
f 39/17/69 48/27/68 46/28/70 
f 46/28/70 40/18/71 39/17/69 
s 1
f 33/9/56 41/19/56 30/6/41 
f 30/6/41 29/5/41 33/9/56 
f 38/33/54 40/34/54 14/35/16 
f 14/35/16 16/36/16 38/33/54 
s 64
f 25/37/72 22/38/72 21/39/72 
f 21/39/72 35/40/72 25/37/72 
s 2
f 38/33/52 16/36/33 22/38/32 
f 22/38/32 25/37/53 38/33/52 
f 35/41/45 21/42/23 18/43/22 
f 18/43/22 32/44/42 35/41/45 
s 1
f 32/44/57 18/43/19 8/45/19 
f 8/45/19 42/46/57 32/44/57 
s 64
f 46/47/36 45/48/36 11/49/36 
f 11/49/36 1/50/36 46/47/36 
s 2
f 40/34/71 46/51/70 1/52/15 
f 1/52/15 14/35/14 40/34/71 
f 8/45/4 11/49/7 45/48/61 
f 45/48/61 42/46/60 8/45/4 
s off
f 35/29/73 36/12/73 26/2/73 
f 26/2/74 25/1/74 35/29/74 
f 35/29/75 34/30/75 36/12/75 
f 44/22/36 47/31/36 45/23/36 
f 46/24/76 48/32/76 43/21/76 
# 92 faces

